<?xml version="1.0" encoding="utf-8"?>
<!-- Generator: Adobe Illustrator 19.0.0, SVG Export Plug-In . SVG Version: 6.00 Build 0)  -->
<svg version="1.1" id="Layer_1" xmlns="http://www.w3.org/2000/svg" xmlns:xlink="http://www.w3.org/1999/xlink" x="0px" y="0px"
	 viewBox="0 0 251.8 69.5" style="enable-background:new 0 0 251.8 69.5;" xml:space="preserve">
<style type="text/css">
	.st0{fill:#1C1C1C;}
	.st1{fill:none;stroke:#1C1C1C;stroke-width:2;stroke-miterlimit:10;}
	.st2{fill:#E42026;}
</style>
<g id="XMLID_6_">
	<path id="XMLID_7_" class="st0" d="M30.8,56.8c0,1.5-0.4,3.1-1.2,4.6c-0.8,1.5-2,2.9-3.4,4.1c-1.4,1.2-3.1,2.2-5.1,2.9
		c-2,0.7-4.1,1.1-6.3,1.1c-1.5,0-2.9-0.1-4.2-0.4C9.3,68.8,8,68.4,6.9,68c-1.1-0.4-2.1-0.9-3-1.4C3,66,2.4,65.5,2,65.1l-2-8.6v-0.2
		c0-0.2,0-0.4,0.1-0.7C0.2,55.2,0.4,55,0.7,55c0.2,0,0.5,0.1,0.7,0.4c0.2,0.3,0.5,0.5,0.7,0.8c0.2,0.4,0.5,0.8,0.7,1.2
		c0.6,1.3,1.2,2.4,1.7,3.3c0.5,0.8,1,1.5,1.4,2c0.4,0.5,0.8,0.9,1.2,1.2c0.6,0.5,1.3,0.9,2.1,1.3c0.7,0.3,1.5,0.6,2.4,0.9
		c0.9,0.3,2,0.4,3.2,0.4c0.5,0,1.3-0.2,2.2-0.5c0.9-0.4,1.8-0.9,2.7-1.6c0.9-0.7,1.7-1.6,2.3-2.7c0.7-1.1,1-2.3,1-3.7
		c0-1.1-0.1-2.1-0.4-3c-0.3-0.9-0.8-1.8-1.5-2.6c-0.7-0.9-1.7-1.8-2.9-2.7c-1.2-1-2.8-2.1-4.7-3.3c-1.8-1.2-3.5-2.4-4.8-3.6
		c-1.4-1.2-2.6-2.5-3.7-3.7c-1.3-1.4-2.4-2.9-3.1-4.3c-0.8-1.4-1.2-2.9-1.2-4.6c0-1.5,0.4-3,1.3-4.5c0.8-1.5,2-2.9,3.5-4.1
		c1.5-1.2,3.3-2.2,5.3-3c2.1-0.7,4.3-1.1,6.8-1.1v0.1c1.4,0,2.6,0.2,3.7,0.5c1.1,0.3,2.1,0.7,2.9,1.1c0.8,0.4,1.6,0.9,2.2,1.4
		c0.6,0.5,1.1,0.9,1.5,1.4l2,8.6c0,0.1,0,0.3-0.1,0.8c0,0.4-0.3,0.6-0.7,0.6c-0.2,0-0.5-0.1-0.7-0.4c-0.2-0.2-0.5-0.5-0.7-0.9
		c-0.2-0.3-0.5-0.7-0.7-1.2c-0.7-1.3-1.3-2.4-1.8-3.2c-0.5-0.8-1-1.4-1.3-1.8c-0.4-0.5-0.8-0.8-1.2-1c-0.5-0.4-1.1-0.8-1.7-1.2
		c-0.5-0.3-1.2-0.6-2-0.8c-0.8-0.2-1.6-0.4-2.5-0.4c-0.5,0-1.3,0.1-2.2,0.4c-0.9,0.3-1.8,0.7-2.7,1.3c-0.9,0.6-1.7,1.4-2.3,2.4
		c-0.7,1-1,2.2-1,3.6c0,1.2,0.1,2.2,0.4,3.1c0.3,0.9,0.8,1.8,1.5,2.6c0.7,0.9,1.7,1.8,2.9,2.7s2.8,2,4.8,3.3
		c1.8,1.2,3.5,2.4,4.9,3.7c1.4,1.2,2.6,2.5,3.7,3.7c1.3,1.5,2.3,2.9,3.1,4.1C30.4,53.4,30.8,55,30.8,56.8z"/>
	<path id="XMLID_9_" class="st0" d="M62.3,45.8c-0.8,0.3-1.5,0.5-2.1,0.6c-0.6,0.1-1.1,0.1-1.5,0.1c-0.6,0-1.1-0.1-1.5-0.3
		c-0.3-0.2-0.6-0.4-0.8-0.6c-0.2-0.2-0.3-0.4-0.3-0.6c0-0.2,0-0.3,0-0.4c0,0,0-0.1,0-0.3c0-0.1,0-0.4,0-0.6c0-0.4-0.1-0.9-0.2-1.5
		c-0.1-0.6-0.4-1.2-0.8-1.7c-0.4-0.6-1.1-1-1.9-1.4c-0.8-0.4-1.9-0.6-3.3-0.6c-1.8,0-3.3,0.6-4.4,1.9c-1.1,1.2-1.9,2.7-2.5,4.5
		c-0.6,1.8-1,3.5-1.2,5.4c-0.2,1.8-0.3,3.3-0.3,4.5c0,1.2,0.2,2.4,0.5,3.8c0.3,1.4,0.9,2.7,1.7,3.9c0.8,1.2,1.8,2.3,3,3.1
		c1.2,0.8,2.8,1.3,4.5,1.3c1.8,0,3.4-0.4,4.7-1.1c1.3-0.7,2.5-1.5,3.4-2.4c0.9-0.9,1.6-1.7,2.2-2.4c0.5-0.7,0.9-1.1,1-1.1
		c0.3,0,0.5,0.2,0.5,0.5c0,0.3,0.1,0.5,0.1,0.5c-0.6,1.5-1.6,2.9-2.8,4.2c-1,1.1-2.4,2-4,2.8c-1.7,0.8-3.8,1.3-6.4,1.3
		c-2.6,0-4.8-0.5-6.7-1.5c-1.9-1-3.5-2.3-4.8-3.9c-1.3-1.6-2.2-3.3-2.8-5.2c-0.6-1.9-0.9-3.7-0.9-5.4s0.3-3.5,0.9-5.4
		c0.6-1.9,1.6-3.6,2.9-5.2c1.3-1.6,2.9-2.9,4.8-3.9c1.9-1,4.1-1.5,6.6-1.5c2.5,0,4.5,0.5,6.1,1.4c1.6,0.9,2.8,1.9,3.7,3
		C61,42.7,61.8,44.2,62.3,45.8z"/>
	<path id="XMLID_12_" class="st0" d="M100.2,67.8c0.2,0.1,0.3,0.3,0.3,0.4s-0.1,0.3-0.3,0.4c-0.1,0-0.2,0.1-0.2,0.1
		c-1.3,0-2.4,0-3.3-0.1c-0.8,0-1.6,0-2.4,0c-0.8,0-1.2,0-1.3,0c-0.1,0-0.5,0-1.1,0.1c-0.6,0-1.3,0.1-2,0.1c-0.6,0-1.2,0-1.7-0.1
		c-0.5-0.1-0.7-0.2-0.7-0.3c0-0.4,0.2-0.6,0.6-0.8c0.4-0.1,0.8-0.3,1.2-0.5c0.4-0.2,0.8-0.6,1.2-1c0.4-0.5,0.6-1.3,0.6-2.4v-6.6v-3
		c0-3.8-0.2-6.7-0.6-8.7c-0.4-2-0.9-3.5-1.5-4.5c-0.6-1-1.3-1.5-2-1.7c-0.7-0.2-1.3-0.3-1.9-0.3c-1.9,0-3.5,0.5-4.6,1.5
		c-1.1,1-2,2.1-2.6,3.2c-0.7,1.3-1.2,2.9-1.5,4.6v14.1v2.1c0,1.2,0.2,2.1,0.5,2.5c0.3,0.4,0.7,0.7,1.2,0.8c0.4,0.1,0.8,0.1,1.2,0.1
		c0.3,0,0.5,0.2,0.5,0.5c0,0.1-0.1,0.3-0.3,0.4c-0.1,0-0.2,0.1-0.2,0.1c-1.3,0-2.4,0-3.3-0.1c-0.8,0-1.6,0-2.4,0c-0.8,0-1.2,0-1.3,0
		c-0.1,0-0.5,0-1.1,0.1s-1.3,0.1-2,0.1c-0.6,0-1.2,0-1.7-0.1c-0.5-0.1-0.7-0.2-0.7-0.3h0.1h-0.1c0-0.4,0.2-0.6,0.6-0.8
		c0.4-0.1,0.8-0.3,1.2-0.5c0.4-0.2,0.8-0.6,1.2-1c0.4-0.5,0.6-1.2,0.6-2.3V28.8c0,0,0-0.4,0-1c0-0.6-0.1-1.3-0.2-2
		c-0.1-0.7-0.4-1.4-0.8-2.1c-0.4-0.6-0.9-1.1-1.6-1.3c-0.4-0.1-0.7-0.4-0.7-0.6c0-0.2,0.1-0.5,0.4-0.8c0.3-0.3,0.6-0.6,1-0.8
		c0.4-0.3,0.9-0.6,1.5-0.9c0.9-0.4,1.8-0.8,2.6-1.2c0.7-0.3,1.4-0.6,2-0.9c0.7-0.3,1.2-0.4,1.5-0.4c0,0,0.1,0.5,0.1,1.5
		c0,1,0.1,2.3,0.1,3.9c0,1.6,0,3.3,0,5.1c0,1.8,0,3.6,0,5.3c0,1.7,0,3.1,0,4.2c0,1.2,0,1.9,0,2.1V19.5v21.9c0.7-0.8,1.6-1.5,2.7-2.2
		c0.9-0.5,2-1,3.3-1.5c1.3-0.5,2.9-0.7,4.7-0.7c0.3,0,0.8,0,1.4,0c0.6,0,1.3,0.2,2,0.4c0.7,0.2,1.5,0.6,2.3,1.2
		c0.8,0.6,1.5,1.3,2.1,2.3c0.6,1,1.2,2.3,1.6,3.9c0.4,1.6,0.6,3.6,0.6,5.9V54l0.1-0.1v-0.2v0.1v3.7v4.8v2.1c0,1,0.1,1.7,0.3,2.2
		c0.2,0.5,0.5,0.8,0.8,0.9c0.3,0.1,0.6,0.2,1,0.2C99.6,67.6,99.9,67.6,100.2,67.8z"/>
	<path id="XMLID_16_" class="st0" d="M116.7,67.7c0.2,0.2,0.4,0.4,0.4,0.5c0,0.1-0.1,0.2-0.3,0.3c-0.1,0-0.2,0.1-0.2,0.1h-3.3
		c-0.8,0-1.6,0-2.4,0c-0.8,0-1.2,0-1.3,0c-0.1,0-0.5,0-1.1,0.1c-0.6,0-1.3,0.1-2,0.1c-0.6,0-1.2,0-1.7-0.1c-0.5-0.1-0.7-0.2-0.7-0.3
		c0-0.4,0.2-0.6,0.6-0.8c0.4-0.1,0.8-0.3,1.2-0.5c0.4-0.2,0.8-0.6,1.2-1c0.4-0.5,0.6-1.2,0.6-2.3V48.2c0-0.1,0-0.5,0-1.1
		c0-0.6-0.1-1.2-0.3-1.9c-0.1-0.7-0.4-1.4-0.7-2c-0.3-0.6-0.8-1.1-1.5-1.3c-0.4-0.1-0.7-0.4-0.7-0.6c0-0.2,0.1-0.5,0.4-0.8
		c0.3-0.3,0.6-0.6,1-0.8c0.4-0.3,0.9-0.6,1.5-0.9c0.9-0.4,1.8-0.8,2.6-1.2c0.7-0.3,1.4-0.6,2-0.9c0.7-0.3,1.2-0.4,1.5-0.4
		c0.1,0,0.2,0,0.2,0.1V39v11v12.1v2.2c0,1,0.1,1.7,0.3,2.2c0.2,0.4,0.5,0.7,0.8,0.9c0.3,0.1,0.6,0.2,1,0.2
		C116.3,67.5,116.5,67.6,116.7,67.7z"/>
	<path id="XMLID_56_" class="st0" d="M151.8,67.3c0.3,0,0.6,0.1,0.8,0.3c0.2,0.2,0.3,0.3,0.3,0.5c0,0.1-0.3,0.3-0.9,0.3
		c-0.6,0.1-1.4,0.1-2.3,0.1c-0.9,0-1.8,0-2.7,0s-1.8,0-2.4,0c-0.6,0-1.3,0-2.1,0c-0.8,0-1.5,0-2.1,0c-0.7,0-1.2-0.1-1.7-0.1
		c-0.5-0.1-0.7-0.2-0.7-0.4c0-0.3,0.1-0.5,0.4-0.5c0.3-0.1,0.6-0.1,0.9-0.2c0.3-0.1,0.6-0.2,0.9-0.4c0.3-0.2,0.4-0.6,0.4-1.3
		c0-0.3-0.1-0.6-0.3-0.9c-0.2-0.3-0.4-0.6-0.5-0.9c-0.2-0.3-0.4-0.7-0.7-1l-7.9-9.4V62v2.1c0,0.2,0,0.5,0,0.8s0,0.5,0.1,0.6
		c0,0,0,0,0,0.2c0,0.2,0.1,0.4,0.2,0.6c0.1,0.2,0.2,0.5,0.4,0.7c0.2,0.2,0.5,0.3,0.9,0.3c0.4,0,0.7,0,0.9,0.1c0.2,0,0.4,0.3,0.6,0.6
		c0,0.1-0.1,0.2-0.2,0.3c-0.1,0.1-0.2,0.2-0.3,0.1c-0.2,0-0.7,0-1.4,0c-0.7,0-1.4,0-2.2,0c-0.8,0-1.5,0-2.1,0c-0.7,0-1.1,0-1.2,0
		s-0.5,0-1.1,0c-0.6,0-1.2,0-1.9,0c-0.6,0-1.2,0-1.6-0.1c-0.5,0-0.7-0.1-0.7-0.3c0-0.1,0-0.3,0.1-0.6c0.1-0.3,0.2-0.4,0.3-0.4
		c0.3,0,0.6-0.1,0.9-0.2c0.3-0.1,0.7-0.3,1-0.6c0.3-0.3,0.6-0.7,0.8-1.2c0.2-0.5,0.3-1.2,0.3-2V27.3c0-0.4,0-0.9-0.1-1.4
		c-0.1-0.5-0.2-1-0.4-1.5c-0.2-0.5-0.4-0.9-0.7-1.3c-0.3-0.4-0.7-0.6-1.2-0.8c-0.4-0.1-0.7-0.4-0.7-0.6c0-0.2,0.1-0.5,0.4-0.8
		c0.3-0.3,0.6-0.6,1-0.8c0.4-0.3,0.9-0.6,1.5-0.9c1-0.4,1.9-0.8,2.7-1.2c0.7-0.3,1.4-0.6,2-0.9c0.7-0.3,1.1-0.4,1.4-0.4
		c0.1,0,0.2,0,0.2,0.1v2.8v10.9v20.4l11.8-9.8c0,0,0.1-0.1,0.1-0.2c0-0.1,0.1-0.2,0.1-0.3c0-0.1,0.1-0.2,0.1-0.3
		c0-0.1-0.1-0.3-0.3-0.5c-0.2-0.2-0.4-0.3-0.6-0.5c-0.2-0.1-0.4-0.3-0.6-0.4c-0.2-0.1-0.3-0.2-0.3-0.2c0-0.5,0.3-0.7,1-0.7
		c0.4,0,0.9,0,1.5,0.1c0.6,0,1.1,0.1,1.5,0.1h1.7c0.6,0,1.2,0,1.8,0.1c0.6,0,0.8,0.2,0.8,0.4c0,0.3-0.2,0.5-0.5,0.5
		c-0.3,0-0.6,0.1-0.7,0.1c0,0-0.2,0-0.5,0.1c-0.3,0.1-0.6,0.2-0.9,0.3c-0.3,0.1-0.6,0.2-0.9,0.3c-0.3,0.1-0.5,0.2-0.6,0.3
		c0,0-0.4,0.4-1.2,1c-0.7,0.6-1.6,1.4-2.7,2.3c-1.1,0.9-2.2,2-3.4,3.1c-1.2,1.2-2.4,2.3-3.4,3.3l11.4,14c0.7,0.6,1.4,1.2,2.1,1.7
		c0.5,0.4,1.1,0.8,1.7,1.2C151,67.1,151.5,67.3,151.8,67.3z"/>
	<path id="XMLID_58_" class="st0" d="M179.4,63.5c0.1-0.1,0.2-0.1,0.4-0.1c0.2,0,0.4,0.2,0.4,0.5c0,0.3-0.1,0.7-0.3,1.3
		c-0.2,0.6-0.5,1.2-1,1.7c-0.4,0.6-1,1.1-1.6,1.5c-0.7,0.5-1.4,0.7-2.2,0.7c-1.1,0-2-0.2-2.7-0.5c-0.7-0.4-1.2-0.8-1.6-1.3
		c-0.4-0.5-0.8-1.1-0.9-1.8c-0.6,0.7-1.3,1.3-2.1,1.8c-0.7,0.5-1.5,0.9-2.5,1.3c-1,0.4-2.1,0.5-3.3,0.5c-1.6,0-3-0.3-4.2-0.8
		c-1.1-0.6-2-1.2-2.7-2c-0.7-0.8-1.2-1.7-1.5-2.6c-0.3-0.9-0.5-1.8-0.5-2.6c0-0.8,0.1-1.4,0.3-2c0.2-0.6,0.4-1.1,0.7-1.4
		c0.2-0.5,0.6-0.9,0.9-1.2l14.6-5.5v-4.3c0-0.1,0-0.6,0-1.4c0-0.8-0.2-1.7-0.4-2.7c-0.2-1-0.7-1.8-1.2-2.6s-1.4-1.2-2.5-1.2
		c-1.9,0-3.3,0.5-4.2,1.6c-0.8,1.1-1.3,2.5-1.3,4.3c0,0.8-0.2,1.3-0.7,1.5c-0.4,0.3-1,0.4-1.6,0.4c-0.4,0-0.9,0-1.3-0.1
		c-0.4-0.1-0.8-0.2-1.2-0.3c-0.4-0.1-0.8-0.3-1.2-0.4c0.4-1.6,1.2-3.1,2.3-4.4c1-1.1,2.3-2.1,4.1-3c1.7-0.9,4.1-1.4,7-1.4
		c1.5,0.1,2.9,0.6,4.1,1.2c1.1,0.6,2,1.5,2.9,2.7c0.9,1.2,1.3,3,1.3,5.2v17.2c0,0.3,0.1,0.6,0.3,0.9c0.1,0.2,0.3,0.4,0.5,0.6
		c0.2,0.2,0.6,0.3,0.9,0.3c0.3,0,0.6-0.1,0.9-0.2c0.2-0.1,0.4-0.3,0.6-0.5c0.2-0.2,0.3-0.5,0.4-0.8L179.4,63.5z M169.7,53.2l-8.8,3
		c-0.8,1.1-1.2,2.4-1.2,3.9c0,0.8,0.1,1.6,0.3,2.4s0.5,1.5,0.9,2.1c0.4,0.6,0.9,1.1,1.5,1.5c0.6,0.4,1.2,0.6,1.9,0.6
		c1,0,1.8-0.1,2.5-0.3c0.7-0.2,1.3-0.5,1.7-0.8c0.5-0.3,0.9-0.7,1.2-1.2V53.2z"/>
	<path id="XMLID_61_" class="st0" d="M218,67.8c0.2,0.2,0.4,0.4,0.4,0.4c0,0.1-0.1,0.3-0.3,0.4c-0.1,0-0.2,0.1-0.3,0.1h-3.3
		c-0.8,0-1.6,0-2.3,0c-0.7,0-1.1,0-1.2,0c-0.1,0-0.5,0-1.2,0.1c-0.7,0-1.3,0.1-2,0.1c-0.6,0-1.2,0-1.7-0.1c-0.5-0.1-0.7-0.2-0.7-0.3
		c0-0.4,0.2-0.7,0.6-0.8c0.4-0.1,0.8-0.3,1.2-0.5c0.4-0.2,0.8-0.6,1.2-1c0.4-0.5,0.6-1.3,0.6-2.4v-6.7v-3.1c0-3.8-0.2-6.7-0.6-8.7
		c-0.4-2-0.9-3.5-1.5-4.5c-0.6-0.9-1.3-1.5-2-1.7c-0.7-0.2-1.3-0.3-1.9-0.3c-2,0-3.6,0.5-4.7,1.4c-1.1,1-2,2-2.7,3.2
		c-0.7,1.3-1.2,2.9-1.5,4.6v14.3v2.1c0,1.2,0.2,2.1,0.5,2.5c0.3,0.4,0.7,0.7,1.2,0.8c0.4,0.1,0.8,0.1,1.2,0.1c0.3,0,0.5,0.2,0.5,0.5
		c0,0.2-0.1,0.3-0.3,0.4c-0.2,0.1-0.3,0.1-0.3,0.1h-3.3c-0.8,0-1.6,0-2.4,0c-0.8,0-1.2,0-1.3,0c-0.1,0-0.5,0-1.1,0.1
		c-0.6,0-1.3,0.1-2,0.1c-0.6,0-1.2,0-1.7-0.1c-0.5-0.1-0.7-0.2-0.7-0.3c0-0.4,0.2-0.7,0.6-0.9c0.4-0.1,0.8-0.3,1.3-0.5
		c0.5-0.2,0.9-0.6,1.3-1c0.4-0.5,0.6-1.2,0.6-2.3V48c0,0,0-0.4,0-0.9c0-0.6-0.1-1.2-0.2-1.9c-0.1-0.7-0.4-1.4-0.7-2.1
		c-0.3-0.6-0.9-1.1-1.6-1.3c-0.5-0.1-0.7-0.4-0.7-0.6c0-0.2,0.1-0.5,0.4-0.8c0.3-0.3,0.6-0.6,1-0.8c0.4-0.3,0.9-0.6,1.5-0.9
		c1-0.5,1.9-0.9,2.7-1.3c0.7-0.3,1.4-0.6,2-0.9c0.7-0.3,1.2-0.4,1.5-0.4c0.1,0,0.2,0,0.2,0.1l0,5.2c0.7-0.8,1.6-1.5,2.7-2.1
		c0.9-0.5,2-1,3.3-1.5c1.3-0.4,2.9-0.7,4.7-0.7c0.3,0,0.8,0,1.5,0.1c0.7,0,1.4,0.2,2.2,0.5c0.8,0.3,1.6,0.8,2.5,1.4
		c0.8,0.7,1.5,1.6,2.2,2.9c0.6,1.2,1.1,2.8,1.4,4.8c0.3,1.9,0.4,4.3,0.3,7.2v-0.4v0.1v3.8v4.7v2.2c0,1.1,0.1,1.8,0.3,2.2
		c0.2,0.4,0.5,0.7,0.8,0.9c0.3,0.1,0.7,0.2,1,0.2C217.5,67.6,217.7,67.6,218,67.8z"/>
	<path id="XMLID_63_" class="st0" d="M251.7,45.8c0,0.1,0.1,0.3,0.1,0.5c0,0.1,0,0.1,0,0.1s0,0,0,0.1v0.1l-22.4,8.2
		c0.3,2.3,0.8,4.4,1.5,6.2c0.3,0.8,0.6,1.5,1.1,2.3c0.4,0.7,0.9,1.4,1.5,2c0.6,0.6,1.2,1,1.9,1.4c0.7,0.3,1.5,0.5,2.4,0.5
		c2.5,0,4.5-0.4,6-1.1c1.5-0.7,2.7-1.5,3.6-2.4c0.9-0.9,1.6-1.7,2-2.4c0.4-0.7,0.8-1.1,1.1-1.1c0.2,0,0.4,0.1,0.4,0.3
		c0,0.2,0.1,0.3,0.1,0.5c0,0.6-0.4,1.4-1.1,2.3c-0.7,1-1.6,1.9-2.8,2.8c-1.2,0.9-2.6,1.7-4.2,2.3c-1.6,0.6-3.3,1-5.1,1
		c-1.8,0-3.7-0.4-5.5-1.1c-1.8-0.7-3.4-1.8-4.9-3.2c-1.4-1.4-2.6-3.1-3.5-5.1c-0.9-2-1.3-4.3-1.3-6.8c0-2.5,0.5-4.7,1.4-6.7
		c0.9-2,2.1-3.7,3.6-5.1c1.5-1.4,3.1-2.5,4.9-3.2c1.8-0.7,3.6-1.1,5.3-1.1c2.4,0,4.4,0.5,6,1.4c1.6,0.9,2.8,2,3.8,3.1
		c1.1,1.3,2,2.8,2.5,4.4c0.1,0,0.3,0,0.4-0.1c0.3-0.1,0.6-0.1,0.8-0.1C251.5,45.6,251.7,45.6,251.7,45.8z M244,47.4
		c-0.1-1.7-0.4-3.2-0.9-4.5c-0.4-1.1-1.1-2.1-1.9-3.1c-0.8-1-2-1.4-3.5-1.4c-1,0-1.9,0.2-2.7,0.6s-1.5,1-2.1,1.7
		c-0.6,0.7-1.1,1.5-1.5,2.4c-0.4,0.9-0.8,1.8-1.1,2.7c-0.6,2.2-1,4.6-1.1,7.3L244,47.4z"/>
</g>
<path class="st1" d="M127.5,67.6H95.1c-1.7,0-3-1.3-3-3V4c0-1.7,1.3-3,3-3h32.4c1.6,0,3,1.3,3,3v60.6
	C130.5,66.3,129.1,67.6,127.5,67.6z"/>
<rect x="105.9" y="23.3" transform="matrix(0.7071 -0.7071 0.7071 0.7071 12.5572 86.4441)" class="st2" width="9.5" height="9.5"/>
<g>
	<path d="M104.2,12.3c0.2,0,0.2,0.1,0.2,0.1c0,0-0.1,0.1-0.4,0.1c-0.3,0-0.7,0-1.3,0h-1.4c0,0-0.1,0-0.1,0c-0.1,0-0.1,0-0.1-0.1
		c0,0,0-0.1,0.1-0.1c0.1,0,0.1,0,0.2,0h0.1c0.1,0,0.1,0,0.3,0c0.1,0,0.2-0.1,0.2-0.3v-0.1l-1.1-2.9c0,0,0-0.1-0.1-0.1
		c0,0-0.1-0.1-0.1-0.1c0,0-0.1,0-0.1,0h-2.6c0,0,0,0-0.1,0c0,0-0.1,0.1-0.1,0.2L96.4,12c0,0,0,0,0,0c0,0,0,0,0,0
		c0,0.1,0,0.1,0.1,0.1c0.1,0,0.1,0,0.2,0c0.1,0,0.2,0,0.2,0c0.1,0,0.1,0.1,0.1,0.1c0,0-0.1,0-0.2,0.1c-0.2,0-0.3,0-0.5,0
		c-0.2,0-0.4,0-0.5,0c-0.2,0-0.2,0-0.3,0c-0.1,0-0.2,0-0.3,0c-0.1,0-0.1,0-0.1,0c0-0.1,0-0.1,0.1-0.1c0,0,0.1,0,0.2,0
		c0.1,0,0.2,0,0.3-0.1c0.1,0,0.2-0.1,0.3-0.2l2.8-6.8c0-0.1,0-0.1,0-0.2c0-0.1,0-0.1,0-0.2c0-0.1,0-0.2-0.1-0.2
		c0-0.1-0.1-0.1-0.1-0.1c0-0.1,0.1-0.2,0.2-0.3c0,0,0.1-0.1,0.2-0.1c0.2-0.1,0.3-0.1,0.5-0.2c0.1,0,0.3-0.1,0.4-0.1
		c0.1,0,0.2,0,0.3,0c0,0,0.1,0,0.1,0c0,0,0,0.1,0,0.1c0,0,0,0.1,0,0.1c0,0,0,0.1,0.1,0.1l3,7.4c0.1,0.2,0.2,0.3,0.3,0.4
		c0.1,0.1,0.2,0.1,0.3,0.2c0.1,0,0.2,0,0.2,0C104.2,12.2,104.2,12.3,104.2,12.3z M100.5,8.3L100.5,8.3
		C100.5,8.3,100.6,8.3,100.5,8.3c0.1-0.1,0.1-0.1,0.1-0.1l-1.2-3.2L98,8c0,0,0,0,0,0.1c0,0,0,0.1,0,0.1c0,0.1,0,0.1,0.1,0.1h0H100.5
		z"/>
</g>
</svg>
